<?xml version="1.0" encoding="utf-8"?>
<!-- Generator: Adobe Illustrator 26.0.0, SVG Export Plug-In . SVG Version: 6.00 Build 0)  -->
<svg version="1.1" id="katman_1" xmlns="http://www.w3.org/2000/svg" xmlns:xlink="http://www.w3.org/1999/xlink" x="0px" y="0px"
	 viewBox="0 0 80 20" style="enable-background:new 0 0 80 20;" xml:space="preserve">
<style type="text/css">
	.st0{fill:url(#SVGID_1_);}
	.st1{fill:url(#SVGID_00000134928653442886018360000005325543031658641557_);}
	.st2{fill:url(#SVGID_00000043417104647834298970000004842342746624985784_);}
	.st3{fill:url(#SVGID_00000116937552619089277340000010461054689532272029_);}
	.st4{fill:#343A40;}
	.st5{fill:url(#SVGID_00000107564690167791619630000004227343870973136562_);}
	.st6{enable-background:new    ;}
	.st7{fill:#FFFFFF;}
</style>
<linearGradient id="SVGID_1_" gradientUnits="userSpaceOnUse" x1="0.485" y1="166.9499" x2="17.9659" y2="145.9729" gradientTransform="matrix(1 0 0 1 0 -145.8519)">
	<stop  offset="0" style="stop-color:#AF893D"/>
	<stop  offset="0.2344" style="stop-color:#D29D40"/>
	<stop  offset="0.5312" style="stop-color:#FFCC74"/>
	<stop  offset="0.8229" style="stop-color:#E8B55D"/>
</linearGradient>
<path class="st0" d="M9,0.6H3l1.6,2.2v14.6l-1.9,2.2h13.6l1.4-3.2H9V0.6z"/>
<linearGradient id="SVGID_00000033338945068682367660000016153822174870230942_" gradientUnits="userSpaceOnUse" x1="-2.9807" y1="164.0619" x2="14.5002" y2="143.0849" gradientTransform="matrix(1 0 0 1 0 -145.8519)">
	<stop  offset="0" style="stop-color:#AF893D"/>
	<stop  offset="0.2344" style="stop-color:#D29D40"/>
	<stop  offset="0.5312" style="stop-color:#FFCC74"/>
	<stop  offset="0.8229" style="stop-color:#E8B55D"/>
</linearGradient>
<path style="fill:url(#SVGID_00000033338945068682367660000016153822174870230942_);" d="M3.3,4.5c-1.6,1.6-2.5,3.8-2.5,6.2
	s1,4.6,2.5,6.2l0,0v-2C2.5,13.7,2,12.3,2,10.7s0.5-3,1.3-4.2V4.5z"/>
<linearGradient id="SVGID_00000013157700796886550250000000735193827374395310_" gradientUnits="userSpaceOnUse" x1="2.0883" y1="168.2859" x2="19.5692" y2="147.3089" gradientTransform="matrix(1 0 0 1 0 -145.8519)">
	<stop  offset="0" style="stop-color:#AF893D"/>
	<stop  offset="0.2344" style="stop-color:#D29D40"/>
	<stop  offset="0.5312" style="stop-color:#FFCC74"/>
	<stop  offset="0.8229" style="stop-color:#E8B55D"/>
</linearGradient>
<path style="fill:url(#SVGID_00000013157700796886550250000000735193827374395310_);" d="M15.8,15.1c0.9-1.2,1.4-2.8,1.4-4.4
	c0-4-3.1-7.3-7-7.6V1.9c4.6,0.3,8.2,4.2,8.2,8.8c0,1.6-0.4,3.1-1.2,4.4H15.8z"/>
<radialGradient id="SVGID_00000044888110853539549890000017139843320482260902_" cx="-355.6601" cy="-143.8466" r="1" gradientTransform="matrix(8.865 -9.8149 9.8149 8.865 4571.2275 -2200.4221)" gradientUnits="userSpaceOnUse">
	<stop  offset="0.1192" style="stop-color:#117D8D"/>
	<stop  offset="0.6425" style="stop-color:#2FEBEB"/>
	<stop  offset="0.8663" style="stop-color:#117D8D"/>
</radialGradient>
<path style="fill:url(#SVGID_00000044888110853539549890000017139843320482260902_);" d="M14.2,15.1c1.1-1.1,1.8-2.7,1.8-4.4
	c0-3.3-2.5-6-5.7-6.3v10.7H14.2z"/>
<g>
	<polygon class="st4" points="21,3 67.3,3 77.1,9.4 67.5,16.9 21.9,16.9 	"/>
	
		<linearGradient id="SVGID_00000061435385319719874770000002727311397813534375_" gradientUnits="userSpaceOnUse" x1="18" y1="88.1" x2="80" y2="88.1" gradientTransform="matrix(1 0 0 1 0 -78)">
		<stop  offset="0" style="stop-color:#117D8D"/>
		<stop  offset="0.3017" style="stop-color:#2FEBEB"/>
		<stop  offset="0.8663" style="stop-color:#117D8D"/>
	</linearGradient>
	<path style="fill:url(#SVGID_00000061435385319719874770000002727311397813534375_);" d="M67,3.9l8.9,6.1l-9,6.3H22.4
		c0.9-1.9,1.5-4.1,1.5-6.3c0-2.1-0.4-4.2-1.3-6.1L67,3.9 M68.2,1.9h-50c1.8,2.2,2.8,5,2.8,8.1c0,3.2-1.2,6.1-3,8.3h50.2L80,10
		L68.2,1.9L68.2,1.9z"/>
</g>
<g class="st6">
	<path class="st7" d="M28,11c0.3,0.7,0.9,1.1,1.7,1.1c0.3,0,0.6-0.1,0.7-0.2c0.2-0.1,0.3-0.3,0.3-0.6c0-0.3-0.1-0.5-0.4-0.6
		c-0.3-0.2-0.7-0.2-1.3-0.3V9.6h0.5c0.4,0,0.6-0.1,0.8-0.2c0.2-0.2,0.3-0.4,0.3-0.6c0-0.2-0.1-0.4-0.2-0.5C30.2,8,30,8,29.7,8
		C29,8,28.5,8.3,28.2,9V7.4c0.5-0.2,1.1-0.3,1.8-0.3c0.5,0,1,0.1,1.3,0.4s0.5,0.6,0.5,1c0,0.4-0.1,0.7-0.3,0.9
		c-0.2,0.2-0.5,0.4-0.8,0.5c0.4,0.1,0.7,0.2,0.9,0.5c0.2,0.2,0.4,0.5,0.4,0.9c0,0.5-0.2,0.9-0.6,1.2c-0.4,0.3-0.9,0.4-1.5,0.4
		c-0.8,0-1.3-0.1-1.8-0.4V11z"/>
	<path class="st7" d="M34.7,7.2h1l1.8,4.5c0.2,0.6,0.5,0.9,0.8,1h-2.2c0.1,0,0.2,0,0.2-0.1c0.1-0.1,0.1-0.2,0.1-0.3
		c0-0.1-0.1-0.4-0.3-0.9H34c-0.2,0.5-0.3,0.8-0.3,0.9c0,0.1,0,0.2,0.1,0.3c0.1,0.1,0.1,0.1,0.2,0.1h-1.9c0.1,0,0.2-0.1,0.4-0.3
		c0.1-0.2,0.3-0.4,0.4-0.8L34.7,7.2z M35.8,10.7l-0.8-2l-0.8,2H35.8z"/>
	<path class="st7" d="M39.1,8.2c0-0.2,0-0.3,0-0.4c0-0.1-0.1-0.2-0.1-0.3c0-0.1-0.1-0.1-0.3-0.2h5.4c-0.1,0-0.2,0.1-0.3,0.3
		c-0.1,0.2-0.1,0.4-0.1,0.6v3.7c0,0.3,0,0.5,0.1,0.6c0.1,0.2,0.2,0.3,0.3,0.3h-2c0.1,0,0.2-0.1,0.3-0.3c0.1-0.2,0.1-0.4,0.1-0.6V8
		h-2.2v3.8c0,0.6,0.1,0.9,0.4,0.9h-2c0.1,0,0.2-0.1,0.3-0.3c0.1-0.2,0.1-0.4,0.1-0.6V8.2z"/>
	<path class="st7" d="M47.4,12.9c-0.8,0-1.4-0.3-1.9-0.8c-0.5-0.5-0.7-1.2-0.7-2c0-0.5,0.1-1,0.4-1.5c0.2-0.5,0.6-0.8,1-1.1
		c0.4-0.3,0.9-0.4,1.5-0.4c0.8,0,1.4,0.3,1.9,0.8c0.5,0.5,0.7,1.2,0.7,2c0,0.8-0.3,1.5-0.8,2.1C48.9,12.6,48.2,12.9,47.4,12.9z
		 M47.6,12c0.4,0,0.8-0.2,1.1-0.5c0.3-0.3,0.4-0.8,0.4-1.4c0-0.7-0.2-1.2-0.5-1.6C48.3,8.2,47.9,8,47.4,8c-0.4,0-0.8,0.2-1.1,0.5
		c-0.3,0.3-0.4,0.8-0.4,1.4c0,0.7,0.1,1.2,0.4,1.6C46.6,11.8,47,12,47.6,12z"/>
	<path class="st7" d="M51.1,8.1c0-0.2,0-0.3,0-0.4c0-0.1-0.1-0.2-0.1-0.3c0-0.1-0.1-0.1-0.2-0.2h1.9c-0.1,0-0.2,0.1-0.3,0.3
		c-0.1,0.1-0.1,0.3-0.1,0.5v0.8c0,0.7,0.3,1.1,0.9,1.1c0.3,0,0.6-0.1,0.9-0.2V8.4c0-0.3,0-0.6-0.1-0.8s-0.2-0.3-0.3-0.4h2
		c-0.1,0-0.2,0.1-0.3,0.3c-0.1,0.2-0.1,0.4-0.1,0.6v3.5c0,0.3,0,0.6,0.1,0.8c0.1,0.2,0.2,0.3,0.3,0.3h-2c0.1,0,0.3-0.1,0.3-0.3
		c0.1-0.2,0.1-0.4,0.1-0.6v-1.3c-0.4,0.2-0.8,0.3-1.2,0.3c-0.6,0-1.1-0.1-1.4-0.5C51.3,10,51.1,9.6,51.1,9V8.1z"/>
	<path class="st7" d="M56.7,8.2c0-0.5-0.2-0.8-0.4-0.9h2.1c-0.1,0-0.2,0.1-0.3,0.3c-0.1,0.2-0.1,0.4-0.1,0.6v1.4h2.4V8.2
		c0-0.2,0-0.4-0.1-0.5c0-0.1-0.1-0.2-0.1-0.3s-0.1-0.1-0.2-0.2h2.1c-0.1,0-0.2,0.1-0.3,0.3c-0.1,0.2-0.1,0.4-0.1,0.7v3.7
		c0,0.2,0,0.4,0.1,0.5c0,0.1,0.1,0.2,0.2,0.3c0.1,0.1,0.1,0.1,0.2,0.1h-2.1c0.1,0,0.1,0,0.2-0.1c0.1-0.1,0.1-0.2,0.2-0.3
		c0-0.1,0.1-0.3,0.1-0.5v-1.5h-2.4v1.5c0,0.3,0,0.5,0.1,0.7c0.1,0.2,0.2,0.3,0.3,0.3h-2.1c0.1,0,0.1,0,0.2-0.1
		c0.1-0.1,0.1-0.2,0.2-0.3c0-0.1,0.1-0.3,0.1-0.5V8.2z"/>
	<path class="st7" d="M62.8,8.2c0-0.5-0.1-0.8-0.4-0.9h2c-0.1,0-0.2,0.1-0.3,0.3C64,7.7,64,7.9,64,8.2v2.7L66.4,8
		c0-0.2,0-0.4-0.1-0.5S66.1,7.3,66,7.2h2c-0.1,0-0.2,0.1-0.3,0.3c-0.1,0.2-0.1,0.4-0.1,0.6v3.7c0,0.2,0,0.4,0.1,0.5
		c0,0.1,0.1,0.2,0.2,0.3c0.1,0.1,0.1,0.1,0.2,0.1h-2c0.1,0,0.2-0.1,0.3-0.3c0.1-0.2,0.1-0.4,0.1-0.6V9.2L64,12c0,0.2,0,0.4,0.1,0.5
		c0.1,0.1,0.2,0.2,0.3,0.2h-2c0.1,0,0.2-0.1,0.3-0.3c0.1-0.2,0.1-0.4,0.1-0.6V8.2z"/>
</g>
</svg>
