<?xml version="1.0" encoding="utf-8"?>
<!-- Generator: Adobe Illustrator 26.0.0, SVG Export Plug-In . SVG Version: 6.00 Build 0)  -->
<svg version="1.1" id="katman_1" xmlns="http://www.w3.org/2000/svg" xmlns:xlink="http://www.w3.org/1999/xlink" x="0px" y="0px"
	 viewBox="0 0 80 20" style="enable-background:new 0 0 80 20;" xml:space="preserve">
<linearGradient id="SVGID_1_" gradientUnits="userSpaceOnUse" x1="0.485" y1="166.9499" x2="17.9659" y2="145.9729" gradientTransform="matrix(1 0 0 1 0 -145.8519)">
	<stop  offset="0" style="stop-color:#AF893D"/>
	<stop  offset="0.2344" style="stop-color:#D29D40"/>
	<stop  offset="0.5312" style="stop-color:#FFCC74"/>
	<stop  offset="0.8229" style="stop-color:#E8B55D"/>
</linearGradient>
<path style="fill:url(#SVGID_1_);" d="M9,0.6H3l1.6,2.2v14.6l-1.9,2.2h13.6l1.4-3.2H9V0.6z"/>
<linearGradient id="SVGID_00000075129917902116740400000016343882754482247352_" gradientUnits="userSpaceOnUse" x1="-2.9807" y1="164.0619" x2="14.5002" y2="143.0849" gradientTransform="matrix(1 0 0 1 0 -145.8519)">
	<stop  offset="0" style="stop-color:#AF893D"/>
	<stop  offset="0.2344" style="stop-color:#D29D40"/>
	<stop  offset="0.5312" style="stop-color:#FFCC74"/>
	<stop  offset="0.8229" style="stop-color:#E8B55D"/>
</linearGradient>
<path style="fill:url(#SVGID_00000075129917902116740400000016343882754482247352_);" d="M3.3,4.5c-1.6,1.6-2.5,3.8-2.5,6.2
	s1,4.6,2.5,6.2l0,0v-2C2.5,13.7,2,12.3,2,10.7s0.5-3,1.3-4.2V4.5z"/>
<linearGradient id="SVGID_00000180334940226385280550000016534123511264688001_" gradientUnits="userSpaceOnUse" x1="2.0883" y1="168.2859" x2="19.5692" y2="147.3089" gradientTransform="matrix(1 0 0 1 0 -145.8519)">
	<stop  offset="0" style="stop-color:#AF893D"/>
	<stop  offset="0.2344" style="stop-color:#D29D40"/>
	<stop  offset="0.5312" style="stop-color:#FFCC74"/>
	<stop  offset="0.8229" style="stop-color:#E8B55D"/>
</linearGradient>
<path style="fill:url(#SVGID_00000180334940226385280550000016534123511264688001_);" d="M15.8,15.1c0.9-1.2,1.4-2.8,1.4-4.4
	c0-4-3.1-7.3-7-7.6V1.9c4.6,0.3,8.2,4.2,8.2,8.8c0,1.6-0.4,3.1-1.2,4.4H15.8z"/>
<polygon style="fill:#6C757D;" points="21,3 67.3,3 77.1,9.4 67.5,16.9 21.9,16.9 "/>
<radialGradient id="SVGID_00000075135167108721850930000008426063249277392572_" cx="-355.6601" cy="-143.8466" r="1" gradientTransform="matrix(8.865 -9.8149 9.8149 8.865 4571.2275 -2200.4221)" gradientUnits="userSpaceOnUse">
	<stop  offset="0.1192" style="stop-color:#117D8D"/>
	<stop  offset="0.6425" style="stop-color:#2FEBEB"/>
	<stop  offset="0.8663" style="stop-color:#117D8D"/>
</radialGradient>
<path style="fill:url(#SVGID_00000075135167108721850930000008426063249277392572_);" d="M14.2,15.1c1.1-1.1,1.8-2.7,1.8-4.4
	c0-3.3-2.5-6-5.7-6.3v10.7H14.2z"/>
<g>
	
		<linearGradient id="SVGID_00000011752831534544665080000017041557267126236563_" gradientUnits="userSpaceOnUse" x1="18" y1="88.1" x2="80" y2="88.1" gradientTransform="matrix(1 0 0 1 0 -78)">
		<stop  offset="0" style="stop-color:#117D8D"/>
		<stop  offset="0.3017" style="stop-color:#2FEBEB"/>
		<stop  offset="0.8663" style="stop-color:#117D8D"/>
	</linearGradient>
	<path style="fill:url(#SVGID_00000011752831534544665080000017041557267126236563_);" d="M67,3.9l8.9,6.1l-9,6.3H22.4
		c0.9-1.9,1.5-4.1,1.5-6.3c0-2.1-0.4-4.2-1.3-6.1L67,3.9 M68.2,1.9h-50c1.8,2.2,2.8,5,2.8,8.1c0,3.2-1.2,6.1-3,8.3h50.2L80,10
		L68.2,1.9L68.2,1.9z"/>
</g>
</svg>
